<?xml version="1.0" encoding="iso-8859-1"?>
<!-- Generator: Adobe Illustrator 19.0.0, SVG Export Plug-In . SVG Version: 6.00 Build 0)  -->
<svg version="1.1" id="Layer_1" xmlns="http://www.w3.org/2000/svg" xmlns:xlink="http://www.w3.org/1999/xlink" x="0px" y="0px"
	 viewBox="0 0 512 512" style="enable-background:new 0 0 512 512;" xml:space="preserve">
<circle style="fill:#F2CF61;" cx="256" cy="256" r="256"/>
<path style="fill:#FFFFFF;" d="M387.812,180h-264c-8.8,0-16,7.2-16,16v268.684C149.64,494.436,200.752,512,256,512
	c55.08,0,106.056-17.452,147.812-47.056V196C403.812,187.2,396.608,180,387.812,180z"/>
<path style="fill:#E6E6E6;" d="M387.812,180h-12c8.796,0,16,7.2,16,16v268.944c-40.236,28.52-89.04,45.716-141.804,46.932
	c1.996,0.052,3.984,0.124,5.992,0.124c55.08,0,106.056-17.452,147.812-47.056V196C403.812,187.2,396.608,180,387.812,180z"/>
<path style="fill:#FFFFFF;" d="M295.812,180c0,8.8-7.204,16-16,16h-48c-8.8,0-16-7.2-16-16v-44c0-8.8,7.2-16,16-16h48
	c8.796,0,16,7.2,16,16V180z"/>
<g>
	<path style="fill:#CC584C;" d="M239.812,172c-2.212,0-4-1.792-4-4v-32c0-2.208,1.788-4,4-4s4,1.792,4,4v32
		C243.812,170.208,242.024,172,239.812,172z"/>
	<path style="fill:#CC584C;" d="M271.812,172c-2.212,0-4-1.792-4-4v-32c0-2.208,1.788-4,4-4s4,1.792,4,4v32
		C275.812,170.208,274.024,172,271.812,172z"/>
	<path style="fill:#CC584C;" d="M271.812,156h-32c-2.212,0-4-1.792-4-4s1.788-4,4-4h32c2.212,0,4,1.792,4,4S274.024,156,271.812,156
		z"/>
</g>
<rect x="215.812" y="176" style="fill:#E6E6E6;" width="80" height="4"/>
<rect x="143.812" y="236" style="fill:#B8D6E6;" width="64" height="80"/>
<rect x="147.812" y="240" style="fill:#C2E2F2;" width="56" height="72"/>
<rect x="223.812" y="236" style="fill:#B8D6E6;" width="64" height="80"/>
<rect x="227.812" y="240" style="fill:#C2E2F2;" width="56" height="72"/>
<rect x="303.812" y="236" style="fill:#B8D6E6;" width="64" height="80"/>
<rect x="307.812" y="240" style="fill:#C2E2F2;" width="56" height="72"/>
<rect x="143.812" y="332" style="fill:#B8D6E6;" width="64" height="80"/>
<rect x="147.812" y="336" style="fill:#C2E2F2;" width="56" height="72"/>
<rect x="223.812" y="332" style="fill:#B8D6E6;" width="64" height="80"/>
<rect x="227.812" y="336" style="fill:#C2E2F2;" width="56" height="72"/>
<rect x="303.812" y="332" style="fill:#B8D6E6;" width="64" height="80"/>
<rect x="307.812" y="336" style="fill:#C2E2F2;" width="56" height="72"/>
<path style="fill:#1E9969;" d="M119.812,384c-26.508,0-48,21.492-48,48c0,0.6,0.072,1.192,0.084,1.788
	c17.08,17.672,36.656,32.888,58.196,45.08c21.564-4.708,37.72-23.892,37.72-46.868C167.812,405.492,146.32,384,119.812,384z"/>
<path style="fill:#1B8C60;" d="M119.812,384c-2.036,0-4.032,0.168-6,0.416c23.672,2.956,42,23.112,42,47.584
	c0,20.084-12.348,37.264-29.86,44.42c1.38,0.82,2.744,1.656,4.14,2.444c21.564-4.708,37.72-23.892,37.72-46.868
	C167.812,405.492,146.32,384,119.812,384z"/>
<path style="fill:#1E9969;" d="M446.696,426.752c-3.88-16.336-17.728-28.804-34.78-30.54C404.624,386.392,392.98,380,379.812,380
	c-22.084,0-40,17.908-40,40c0,2.452,0.252,4.84,0.676,7.168c-5.416,6.828-8.676,15.44-8.676,24.832
	c0,17.832,11.68,32.928,27.796,38.084C393,475.288,422.64,453.584,446.696,426.752z"/>
<path style="fill:#1B8C60;" d="M411.916,396.208C404.624,386.392,392.98,380,379.812,380c-2.796,0-5.532,0.292-8.164,0.84
	c9.892,1.98,18.46,7.56,24.264,15.368c12.352,1.256,22.468,8.528,29.424,18.052c3.468,4.744-0.26,19.44-5.036,23.408
	c-21.256,17.672-43.276,36.304-68.908,48.72c2.568,1.524,5.304,2.784,8.204,3.712c33.392-14.804,63.032-36.5,87.084-63.344
	C442.816,410.416,428.968,397.944,411.916,396.208z"/>
<path style="fill:#1A1A1A;" d="M215.812,508.836C228.908,510.9,242.324,512,256,512c12.16,0,24.1-0.908,35.812-2.548V436h-76
	L215.812,508.836L215.812,508.836z"/>
<path style="fill:#242424;" d="M219.812,509.408C231.64,511.08,243.712,512,256,512c10.78,0,21.384-0.744,31.812-2.04V440h-68
	L219.812,509.408L219.812,509.408z"/>
<g>
</g>
<g>
</g>
<g>
</g>
<g>
</g>
<g>
</g>
<g>
</g>
<g>
</g>
<g>
</g>
<g>
</g>
<g>
</g>
<g>
</g>
<g>
</g>
<g>
</g>
<g>
</g>
<g>
</g>
</svg>
